<svg width="576" height="449" viewBox="0 0 576 449" fill="none" xmlns="http://www.w3.org/2000/svg">
<path d="M542.22 0.0543061C487.42 3.16431 378.5 14.4843 311.26 55.6443C306.62 58.4843 303.99 63.5343 303.99 68.8143V432.684C303.99 444.234 316.62 451.534 327.27 446.174C396.45 411.354 496.5 401.854 545.97 399.254C562.86 398.364 575.99 384.824 575.99 368.594V30.7543C576 13.0443 560.64 -0.985694 542.22 0.0543061ZM264.73 55.6443C197.5 14.4843 88.58 3.17431 33.78 0.0543061C15.36 -0.985694 0 13.0443 0 30.7543V368.604C0 384.844 13.13 398.384 30.02 399.264C79.51 401.864 179.61 411.374 248.79 446.214C259.41 451.564 272 444.274 272 432.754V68.6343C272 63.3443 269.38 58.4943 264.73 55.6443Z" fill="black"/>
</svg>
