<?xml version="1.0" encoding="utf-8"?>
<!-- Generator: Adobe Illustrator 27.7.0, SVG Export Plug-In . SVG Version: 6.00 Build 0)  -->
<svg version="1.1" id="Capa_1" xmlns="http://www.w3.org/2000/svg" xmlns:xlink="http://www.w3.org/1999/xlink" x="0px" y="0px"
	 viewBox="0 0 150 80" style="enable-background:new 0 0 150 80;" xml:space="preserve">
<style type="text/css">
	.st0{fill:#000000;}
</style>
<g>
	<path class="st0" d="M26.9,17h6.8v16.3c0,2.8-0.4,4.9-1.3,6.3c-1.8,2.8-4.7,4.5-8.8,4.5c-2.2,0-4.1-0.4-5.7-1.3
		c-3.1-1.8-4.6-4.3-4.6-9.5V17h6.8v16.2c0,3.3,1,4.9,3.5,4.9c2.3,0,3.4-1.2,3.4-4.9V17z"/>
	<path class="st0" d="M41.4,43.7V17h6.8v20.7H56v6H41.4z"/>
	<path class="st0" d="M61.4,43.7V17h6.8v26.6H61.4z"/>
	<path class="st0" d="M86.2,24.8c-0.3-1.9-1.1-2.6-2.4-2.6c-1.3,0-2.3,0.9-2.3,2.1c0,1.6,1.4,2.3,4.4,3.6c5.9,2.5,7.3,4.6,7.3,8.1
		c0,5.1-3.5,8.2-9.3,8.2c-5.8,0-9.6-3-9.6-8.7v-0.6H81c0,2.2,1.1,3.6,2.8,3.6c1.4,0,2.6-1.1,2.6-2.6c0-2.1-3-3.1-5.4-4
		c-4.4-1.8-6.3-4.1-6.3-7.5c0-4.5,4.4-7.8,9.3-7.8c1.8,0,3.3,0.4,4.7,1.1c2.8,1.5,4.2,3.6,4.2,7.2H86.2z"/>
	<path class="st0" d="M99,43.7V17h14.8v6h-8.3v4.1h8v6h-8v4.6h8.3v6H99z"/>
	<path class="st0" d="M131.2,24.8c-0.3-1.9-1.1-2.6-2.4-2.6c-1.3,0-2.3,0.9-2.3,2.1c0,1.6,1.4,2.3,4.4,3.6c5.9,2.5,7.3,4.6,7.3,8.1
		c0,5.1-3.5,8.2-9.3,8.2c-5.8,0-9.6-3-9.6-8.7v-0.6h6.8c0,2.2,1.1,3.6,2.8,3.6c1.4,0,2.6-1.1,2.6-2.6c0-2.1-3-3.1-5.4-4
		c-4.4-1.8-6.3-4.1-6.3-7.5c0-4.5,4.4-7.8,9.3-7.8c1.8,0,3.3,0.4,4.7,1.1c2.8,1.5,4.2,3.6,4.2,7.2H131.2z"/>
	<path class="st0" d="M16.7,56.4c-0.1-0.9-0.6-1.4-1.4-1.4c-0.8,0-1.4,0.6-1.4,1.4c0,0.7,0.5,1.1,1.6,1.5c2.2,0.7,2.6,1.6,2.6,2.9
		c0,1.7-1.1,2.7-2.9,2.7c-1.6,0-2.8-1.1-2.8-2.8v-0.1h1.2c0,1.2,0.6,1.9,1.6,1.9c1,0,1.7-0.6,1.7-1.6c0-0.9-0.6-1.4-1.6-1.7
		c-1.6-0.6-2.6-1-2.6-2.6c0-1.5,1.1-2.5,2.6-2.5c1.4,0,2.5,1,2.5,2.5H16.7z"/>
	<path class="st0" d="M40.2,63.2v-1.6h0c-0.7,1.1-2.1,1.8-3.5,1.8c-2.7,0-4.9-2.1-4.9-4.8s2.2-4.7,4.9-4.7c1.5,0,2.8,0.7,3.5,1.8h0
		v-1.6h1.2v9.1H40.2z M40.3,58.7c0-2-1.6-3.7-3.6-3.7c-2.1,0-3.7,1.6-3.7,3.7c0,2.1,1.6,3.7,3.7,3.7C38.6,62.4,40.3,60.8,40.3,58.7z
		"/>
	<path class="st0" d="M54.7,63.2V51h1.2v4.8h0c0.8-1.1,2.1-1.8,3.5-1.8c2.7,0,4.9,2,4.9,4.7c0,2.7-2.1,4.8-4.9,4.8
		c-1.4,0-2.7-0.6-3.5-1.8h0v1.6H54.7z M59.4,55c-2,0-3.6,1.7-3.6,3.7c0,2,1.6,3.7,3.6,3.7c2.2,0,3.7-1.6,3.7-3.7
		C63.2,56.6,61.6,55,59.4,55z"/>
	<path class="st0" d="M77.9,59.1c0.1,1.8,1.8,3.3,3.5,3.3c1.4,0,2.8-0.8,3.3-2.1h1.2c-0.7,2-2.5,3.2-4.5,3.2c-2.6,0-4.7-2.1-4.7-4.7
		c0-2.6,2.2-4.8,4.7-4.8c2.7,0,4.8,2.3,4.8,4.8c0,0.1,0,0.2,0,0.3H77.9z M85,58.1c-0.3-1.8-1.8-3.1-3.6-3.1c-1.7,0-3.2,1.2-3.5,3.1
		H85z"/>
	<path class="st0" d="M99.2,63.2V51h1.2v12.3H99.2z"/>
	<path class="st0" d="M112.5,63.2V51h1.2v12.3H112.5z"/>
	<path class="st0" d="M127.8,59.1c0.1,1.8,1.8,3.3,3.5,3.3c1.4,0,2.8-0.8,3.3-2.1h1.2c-0.7,2-2.5,3.2-4.5,3.2
		c-2.6,0-4.7-2.1-4.7-4.7c0-2.6,2.2-4.8,4.7-4.8c2.7,0,4.8,2.3,4.8,4.8c0,0.1,0,0.2,0,0.3H127.8z M134.8,58.1
		c-0.3-1.8-1.8-3.1-3.6-3.1c-1.7,0-3.2,1.2-3.5,3.1H134.8z"/>
</g>
<rect x="7.1" y="7.7" class="st0" width="135.7" height="1.7"/>
<rect x="7.1" y="70.6" class="st0" width="135.7" height="1.7"/>
</svg>
